<svg width="35" height="36" viewBox="0 0 35 36" fill="none" xmlns="http://www.w3.org/2000/svg">
<path d="M14.5833 26.5885C17.1718 26.5879 19.6857 25.7214 21.7248 24.1268L28.1356 30.5376L30.1977 28.4755L23.7869 22.0647C25.3823 20.0255 26.2494 17.511 26.25 14.9218C26.25 8.48908 21.016 3.25513 14.5833 3.25513C8.15062 3.25513 2.91666 8.48908 2.91666 14.9218C2.91666 21.3545 8.15062 26.5885 14.5833 26.5885ZM14.5833 6.17179C19.4089 6.17179 23.3333 10.0962 23.3333 14.9218C23.3333 19.7474 19.4089 23.6718 14.5833 23.6718C9.7577 23.6718 5.83332 19.7474 5.83332 14.9218C5.83332 10.0962 9.7577 6.17179 14.5833 6.17179Z" fill="#4E4E4E"/>
<path d="M16.6425 12.8597C17.1952 13.4139 17.5 14.146 17.5 14.9218H20.4167C20.418 14.1553 20.2673 13.3962 19.9735 12.6883C19.6796 11.9805 19.2483 11.3378 18.7046 10.7976C16.4967 8.59264 12.6686 8.59264 10.4621 10.7976L12.5213 12.8626C13.6296 11.7572 15.54 11.7601 16.6425 12.8597Z" fill="#4E4E4E"/>
</svg>
